<svg width="700" height="1060" viewBox="0 0 700 1060" fill="none" xmlns="http://www.w3.org/2000/svg">
<path d="M423.451 869.147H425.527C408.757 845.51 381.163 830.085 349.996 830.085V830.085C318.829 830.085 291.266 845.51 274.496 869.147H276.542" stroke="#4502BE" stroke-width="5.07434"/>
<path d="M152.937 1029.99H150.468V869.126H549.532V1029.99H547.001" stroke="#4502BE" stroke-width="5"/>
<path fill-rule="evenodd" clip-rule="evenodd" d="M355 922.647C355 923.304 354.871 923.954 354.62 924.561C354.369 925.168 354.001 925.72 353.537 926.184C353.072 926.649 352.521 927.018 351.914 927.269C351.307 927.521 350.657 927.65 350 927.65C349.343 927.65 348.693 927.521 348.086 927.269C347.479 927.018 346.928 926.649 346.463 926.184C345.999 925.72 345.631 925.168 345.38 924.561C345.129 923.954 345 923.304 345 922.647C345 921.99 345.129 921.34 345.38 920.733C345.631 920.126 345.999 919.574 346.463 919.11C346.928 918.645 347.479 918.276 348.086 918.025C348.693 917.773 349.343 917.644 350 917.644C350.657 917.644 351.307 917.773 351.914 918.025C352.521 918.276 353.072 918.645 353.537 919.11C354.001 919.574 354.369 920.126 354.62 920.733C354.871 921.34 355 921.99 355 922.647V922.647Z" fill="#4502BE"/>
<path fill-rule="evenodd" clip-rule="evenodd" d="M356 530C356 530.788 355.846 531.569 355.544 532.297C355.243 533.026 354.801 533.687 354.244 534.245C353.687 534.803 353.025 535.245 352.297 535.547C351.569 535.848 350.788 536.004 350 536.004C349.212 536.004 348.431 535.848 347.703 535.547C346.975 535.245 346.313 534.803 345.756 534.245C345.199 533.687 344.757 533.026 344.456 532.297C344.154 531.569 344 530.788 344 530C344 529.212 344.154 528.431 344.456 527.703C344.757 526.974 345.199 526.313 345.756 525.755C346.313 525.198 346.975 524.755 347.703 524.454C348.431 524.152 349.212 523.996 350 523.996C350.788 523.996 351.569 524.152 352.297 524.454C353.025 524.755 353.687 525.198 354.244 525.755C354.801 526.313 355.243 526.974 355.544 527.703C355.846 528.431 356 529.212 356 530V530Z" fill="#4502BE"/>
<path fill-rule="evenodd" clip-rule="evenodd" d="M355 137.647C355 138.304 354.871 138.954 354.62 139.561C354.369 140.168 354.001 140.72 353.537 141.185C353.072 141.649 352.521 142.018 351.914 142.269C351.307 142.521 350.657 142.65 350 142.65C349.343 142.65 348.693 142.521 348.086 142.269C347.479 142.018 346.928 141.649 346.463 141.185C345.999 140.72 345.631 140.168 345.38 139.561C345.129 138.954 345 138.304 345 137.647C345 136.99 345.129 136.34 345.38 135.733C345.631 135.126 345.999 134.574 346.463 134.11C346.928 133.645 347.479 133.276 348.086 133.025C348.693 132.774 349.343 132.644 350 132.644C350.657 132.644 351.307 132.774 351.914 133.025C352.521 133.276 353.072 133.645 353.537 134.11C354.001 134.574 354.369 135.126 354.62 135.733C354.871 136.34 355 136.99 355 137.647V137.647Z" fill="#4502BE"/>
<path d="M30.5691 1015.98C37.5295 1015.8 43.319 1021.45 43.4921 1028.58C43.4948 1028.69 43.496 1028.79 43.496 1028.9" stroke="#4502BE" stroke-width="5"/>
<path d="M262.445 1030H259.945V978.09H440.055V1030H437.555" stroke="#4502BE" stroke-width="5"/>
<path fill-rule="evenodd" clip-rule="evenodd" d="M442.537 530C442.537 581.08 401.08 622.537 350 622.537C298.92 622.537 257.463 581.08 257.463 530C257.463 478.92 298.92 437.463 350 437.463C401.08 437.463 442.537 478.92 442.537 530Z" stroke="#4502BE" stroke-width="5"/>
<path d="M30.351 530C669.649 530 669.649 530 669.649 530" stroke="#4502BE" stroke-width="5"/>
<path d="M437.586 30.0104H440.055V81.92H259.945V30.0104H262.476" stroke="#4502BE" stroke-width="5"/>
<path fill-rule="evenodd" clip-rule="evenodd" d="M30 30H670V1030H30V30Z" stroke="#4502BE" stroke-width="5"/>
<path d="M547.001 30.007H549.532V190.871H150.468V30.007H152.968" stroke="#4502BE" stroke-width="5"/>
<path d="M276.287 190.921L274.246 190.933C290.99 214.775 318.669 230.37 349.996 230.37C381.325 230.37 409.033 214.778 425.777 190.933H423.739" stroke="#4502BE" stroke-width="5"/>
<path d="M668.564 43.7909C661.604 43.9683 655.814 38.3226 655.641 31.1889C655.639 31.0762 655.637 30.9808 655.637 30.868" stroke="#4502BE" stroke-width="5"/>
<path d="M44.2972 30.9902C44.4746 37.9506 38.829 43.7401 31.6953 43.9132C31.5825 43.916 31.4872 43.9171 31.3744 43.9171" stroke="#4502BE" stroke-width="5"/>
<path d="M655.296 1028.5C655.119 1021.54 660.764 1015.75 667.898 1015.58C668.011 1015.57 668.106 1015.57 668.219 1015.57" stroke="#4502BE" stroke-width="5"/>
</svg>
